<svg width="24" height="24" viewBox="0 0 24 24" fill="none" xmlns="http://www.w3.org/2000/svg">
<path d="M12.75 3.75C12.75 3.33579 12.4142 3 12 3C11.5858 3 11.25 3.33579 11.25 3.75V13.25C11.25 13.6642 11.5858 14 12 14C12.4142 14 12.75 13.6642 12.75 13.25V3.75Z" fill="black"/>
<path d="M7.5 8.75C7.5 8.33579 7.16421 8 6.75 8C6.33579 8 6 8.33579 6 8.75L6 13.25C6 13.6642 6.33579 14 6.75 14C7.16421 14 7.5 13.6642 7.5 13.25V8.75Z" fill="black"/>
<path d="M17.25 6C17.6642 6 18 6.33579 18 6.75V13.25C18 13.6642 17.6642 14 17.25 14C16.8358 14 16.5 13.6642 16.5 13.25V6.75C16.5 6.33579 16.8358 6 17.25 6Z" fill="black"/>
<path fill-rule="evenodd" clip-rule="evenodd" d="M14 21.75C15.3979 21.75 16.5725 20.7939 16.9055 19.5H20.25C20.6642 19.5 21 19.1642 21 18.75C21 18.3358 20.6642 18 20.25 18H16.9055C16.5725 16.7061 15.3979 15.75 14 15.75C12.6021 15.75 11.4275 16.7061 11.0945 18H3.75C3.33579 18 3 18.3358 3 18.75C3 19.1642 3.33579 19.5 3.75 19.5H11.0945C11.4275 20.7939 12.6021 21.75 14 21.75ZM14 20.25C14.8284 20.25 15.5 19.5784 15.5 18.75C15.5 17.9216 14.8284 17.25 14 17.25C13.1716 17.25 12.5 17.9216 12.5 18.75C12.5 19.5784 13.1716 20.25 14 20.25Z" fill="black"/>
</svg>
