<svg width="24" height="24" viewBox="0 0 24 24" fill="none" xmlns="http://www.w3.org/2000/svg">
<path fill-rule="evenodd" clip-rule="evenodd" d="M19 4.5H5C4.72386 4.5 4.5 4.72386 4.5 5V19C4.5 19.2761 4.72386 19.5 5 19.5H19C19.2761 19.5 19.5 19.2761 19.5 19V5C19.5 4.72386 19.2761 4.5 19 4.5ZM5 3C3.89543 3 3 3.89543 3 5V19C3 20.1046 3.89543 21 5 21H19C20.1046 21 21 20.1046 21 19V5C21 3.89543 20.1046 3 19 3H5Z" fill="#191E26"/>
<path fill-rule="evenodd" clip-rule="evenodd" d="M8.5 8.5V4.5H10V8.5H14V4.5H15.5V8.5H19.5V10H10V14H19.5V15.5H10V19.5H8.5V15.5H4.5V14H8.5V10H4.5V8.5H8.5Z" fill="#191E26"/>
</svg>
